<svg width="65" height="51" viewBox="0 0 65 51" fill="none" xmlns="http://www.w3.org/2000/svg">
<path d="M35.9707 0.521646L31.0633 0.450195C31.0633 0.450195 29.6213 0.521645 28.988 1.60639L0.839844 50.1959H18.8843C18.8843 50.1959 20.0405 50.4135 20.9044 48.9682L39.2346 17.3937L55.2005 44.9183L49.6534 44.9053C49.6534 44.9053 49.0298 44.8371 48.3283 43.918L39.2606 28.2898L36.7112 32.8042C36.7112 32.8042 36.2045 33.9214 36.6397 34.7723L45.0384 49.3612C45.0384 49.3612 45.7236 50.6408 46.9675 50.5239L64.8398 50.3063L39.2996 6.12725L17.6209 43.486C17.6209 43.486 16.9162 44.6942 16.2958 44.8663L10.4304 44.9475L35.9707 0.521646Z" fill="#246DCC"/>
</svg>
